<svg xmlns="http://www.w3.org/2000/svg" viewBox="0 0 512 512">
  <g fill="#f2f2f2">
    <path d="M256 0C173.5-.1 96 39.7 48 106.9c24.2-15.1 48.8-20.6 70.4-20.4 29.7.1 53.1 9.3 64.3 15.7 2.7 1.5 5.3 3.2 7.9 4.9 50.2-22.1 108.3-17.3 154.3 12.7 46 30 73.7 81.3 73.7 136.2 0 43.5-17.4 85.2-48.4 115.8 7.3.8 15.2 1.3 23.2 1.2 28.4 0 59-6.3 81.9-25.5 15-12.7 27.6-31.2 34.5-58.8 1.4-10.7 2.2-21.6 2.2-32.7C512 114.6 397.4 0 256 0z"/>
    <path d="M325.8 361.7c1.6.8 5.2 2.1 10.1 3.4 34.8-25.4 55.4-65.9 55.5-109.1-.2-74.7-60.7-135.2-135.4-135.3-14.4 0-28.8 2.4-42.5 6.9 27.5 31.2 40.7 76.1 53.5 125v.1c.1.1 4.2 13.6 11.1 31.6 6.9 17.9 16.8 40.3 27.6 56.4 7.1 10.8 14.8 18.6 20.1 21z"/>
    <path d="M373.9 411.2c-17.9-2.2-32.7-4.9-45.6-9.5-50.4 24.9-110.2 22.1-158-7.6-47.8-29.7-76.9-81.9-76.9-138.2 0-46.8 20.2-91.4 55.5-122.2-9.3-2.2-18.7-3.4-28.3-3.4-47.7.4-98.1 26.8-119.1 98.2C-.4 238.8.1 246.7.1 256c0 141.4 114.6 256 256 256 86.6 0 163-43 209.3-108.8-25 6.2-49.2 9.3-69.7 9.3-7.8 0-15-.4-21.8-1.3z"/>
    <path d="M178.2 145.3c-36.1 25.3-57.5 66.6-57.6 110.7.1 43.3 20.9 84.1 56 109.5 8.3-34.6 29.2-66.3 60.4-129.7-1.9-5.1-4-10.7-6.3-16.6-8.7-21.6-21.2-46.8-32.3-58.2-5.9-6.2-12.7-11.4-20.2-15.7zM245.4 260.6c-2.6 5.6-5.3 11.8-8.3 18.3-10.3 23.2-21.6 51.6-25.8 69.8-1.7 7.7-2.5 15.6-2.4 23.4 0 3.5.3 7.2.5 10.9 14.5 5.3 30.3 8.3 46.7 8.3 14.5 0 28.9-2.4 42.7-6.9-3.2-2.9-6.3-6.1-8.9-9.4-18.3-23.3-28.4-57.2-44.5-114.4z"/>
  </g>
</svg>
