<?xml version="1.0" encoding="UTF-8" standalone="no"?>
<svg
   xmlns:dc="http://purl.org/dc/elements/1.1/"
   xmlns:cc="http://creativecommons.org/ns#"
   xmlns:rdf="http://www.w3.org/1999/02/22-rdf-syntax-ns#"
   xmlns:svg="http://www.w3.org/2000/svg"
   xmlns="http://www.w3.org/2000/svg"
   xmlns:sodipodi="http://sodipodi.sourceforge.net/DTD/sodipodi-0.dtd"
   xmlns:inkscape="http://www.inkscape.org/namespaces/inkscape"
   id="visual"
   viewBox="0 0 396.51367 138.31197"
   width="396.51367"
   height="138.31197"
   version="1.1"
   sodipodi:docname="left-1.svg"
   inkscape:version="1.0.2 (e86c870879, 2021-01-15)">
  <metadata
     id="metadata883">
    <rdf:RDF>
      <cc:Work
         rdf:about="">
        <dc:format>image/svg+xml</dc:format>
        <dc:type
           rdf:resource="http://purl.org/dc/dcmitype/StillImage" />
        <dc:title></dc:title>
      </cc:Work>
    </rdf:RDF>
  </metadata>
  <defs
     id="defs881" />
  <sodipodi:namedview
     pagecolor="#ffffff"
     bordercolor="#666666"
     borderopacity="1"
     objecttolerance="10"
     gridtolerance="10"
     guidetolerance="10"
     inkscape:pageopacity="0"
     inkscape:pageshadow="2"
     inkscape:window-width="2560"
     inkscape:window-height="1367"
     id="namedview879"
     showgrid="false"
     inkscape:snap-page="true"
     inkscape:zoom="2"
     inkscape:cx="390.94113"
     inkscape:cy="78.457424"
     inkscape:window-x="0"
     inkscape:window-y="0"
     inkscape:window-maximized="1"
     inkscape:current-layer="visual" />
  <path
     d="m 0,50.81722 13.7,13 c 13.6,13 41,39 68.3,55 27.3,16 54.7,22 81.8,18 27.2,-4 63.97274,-29.94304 91.17274,-31.94304 27.1,-2 44.72726,19.94304 72.02726,10.94304 27.3,-9 51.2926,-28.47989 55.41043,-56.77791 11.72776,-66.05606 -44.11454,-30.69721 -49.27336,-17.62086 23.74221,-33.20748 75.51348,29.34368 14.10205,51.37793 -37.86238,13.58491 -79.56916,-46.94483 -126.6284,-6.8191 -24.36543,15.98536 -82.79161,48.93324 -137.248739,3.0165 C 53.815511,58.05029 18.260866,2.12953 0,0 Z"
     fill="#3dcb3e"
     id="path870"
     sodipodi:nodetypes="ccsccsccscccc" />
  <path
     d="m 0,50.81722 13.7,19 c 13.6,19 40.91993,14.22362 68.21993,36.22362 27.3,22 49.77782,24.97024 76.87782,15.97024 27.2,-9 59.5185,-13.36794 86.7185,-14.36794 27.1,-1 51.98561,20.20637 79.28561,19.20637 27.3,-1 68.73954,-46.32506 69.64889,-76.82259 -0.078,-16.43444 -44.63408,-43.69008 -61.31368,-8.60847 0,0 12.20033,-20.82772 34.52174,-7.47811 30.99876,18.53921 -5.43304,76.50691 -39.86932,68.07695 C 299.86866,95.1823 272.3,81.10207 245.2,83.10207 c -27.2,2 -60.19489,24.10959 -87.39489,28.10959 C 87.436981,118.35117 60.067814,71.16502 13.7,25.81722 l -13.7,-13 z"
     fill="#09c119"
     id="path872"
     sodipodi:nodetypes="ccsccsccssccccc" />
  <path
     d="m 0,97.24937 c 0,0 16.038019,-21.20977 52.30948,7.92455 107.92559,85.45067 151.96681,-23.98274 197.48251,-1.71375 124.8725,76.63303 144.95482,-10.88993 146.37727,-31.10082 5.69335,-80.89386 -61.0567,-49.95755 -63.03219,-30.9409 19.15956,-37.63361 89.43409,-10.3065 33.84567,58.17404 -17.19742,20.67096 -66.70799,25.14539 -113.9367,-14.82876 C 218.82052,58.96576 164.75622,113.6724 164.75622,113.6724 111.62383,151.41443 52.02495,80.6479 0,41.94122 Z"
     fill="#02a719"
     id="path874"
     sodipodi:nodetypes="cccscccccc"
     style="stroke-width:1.00157;stroke-miterlimit:4;stroke-dasharray:none;paint-order:markers fill stroke" />
  <g
     inkscape:groupmode="layer"
     id="layer1"
     inkscape:label="left"
     transform="translate(0,-212.18278)" />
</svg>
