<?xml version="1.0" encoding="UTF-8" standalone="no"?>
<svg
   xmlns:dc="http://purl.org/dc/elements/1.1/"
   xmlns:cc="http://creativecommons.org/ns#"
   xmlns:rdf="http://www.w3.org/1999/02/22-rdf-syntax-ns#"
   xmlns:svg="http://www.w3.org/2000/svg"
   xmlns="http://www.w3.org/2000/svg"
   xmlns:sodipodi="http://sodipodi.sourceforge.net/DTD/sodipodi-0.dtd"
   xmlns:inkscape="http://www.inkscape.org/namespaces/inkscape"
   id="visual"
   viewBox="0 0 817.14679 267.18561"
   width="817.14679"
   height="267.18561"
   version="1.1"
   sodipodi:docname="right-3.svg"
   inkscape:version="1.0.2 (e86c870879, 2021-01-15)">
  <metadata
     id="metadata983">
    <rdf:RDF>
      <cc:Work
         rdf:about="">
        <dc:format>image/svg+xml</dc:format>
        <dc:type
           rdf:resource="http://purl.org/dc/dcmitype/StillImage" />
        <dc:title></dc:title>
      </cc:Work>
    </rdf:RDF>
  </metadata>
  <defs
     id="defs981" />
  <sodipodi:namedview
     pagecolor="#ffffff"
     bordercolor="#666666"
     borderopacity="1"
     objecttolerance="10"
     gridtolerance="10"
     guidetolerance="10"
     inkscape:pageopacity="0"
     inkscape:pageshadow="2"
     inkscape:window-width="2560"
     inkscape:window-height="1367"
     id="namedview979"
     showgrid="false"
     inkscape:zoom="1.2216667"
     inkscape:cx="609.56244"
     inkscape:cy="132.44659"
     inkscape:window-x="0"
     inkscape:window-y="0"
     inkscape:window-maximized="1"
     inkscape:current-layer="visual"
     inkscape:snap-page="true" />
  <path
     d="M 167.82806,232.45764 C -31.490309,252.37353 72.873885,75.447893 172.82119,79.610517 c 145.3529,6.01916 360.19779,77.835503 491.00304,79.017593 94.94058,1.11173 138.82522,17.6287 153.32256,-52.32093 v 92.39159 C 752.14573,178.0895 583.91723,221.98435 538.28104,219.03625 369.32183,218.84449 274.02113,98.65179 161.73059,115.44446 75.5862,129.2962 117.24408,242.05437 167.82806,232.45764 Z"
     fill="#5c78ff"
     id="path970"
     sodipodi:nodetypes="cccccccc" />
  <path
     d="M 116.64964,57.499382 C 154.14848,53.833446 330.6642,42.585809 671.85724,147.49142 L 817.14679,96.256662 V 132.56606 C 715.93916,237.67423 398.78372,179.33883 226.3984,99.035 85.225349,44.66945 19.321641,232.0082 167.82806,232.45764 -8.8598283,312.37061 20.425426,51.025492 116.64964,57.499382 Z"
     fill="#345fff"
     id="path972"
     sodipodi:nodetypes="ccccccc" />
  <path
     d="M 239.63184,30.149022 C 799.66128,197.45665 773.30666,56.564063 817.14679,0 V 106.30718 C 684.85673,173.93658 559.9947,201.1981 350.44952,97.336578 64.3092,-40.085077 -64.731989,282.38907 167.82806,232.45764 -72.593729,370.14289 -30.411974,-59.312932 239.63184,30.149022 Z"
     fill="#2d50df"
     id="path974"
     sodipodi:nodetypes="cccccc" />
  <g
     inkscape:groupmode="layer"
     id="layer2"
     inkscape:label="right" />
</svg>
