<?xml version="1.0" encoding="UTF-8" standalone="no"?>
<svg
   xmlns:dc="http://purl.org/dc/elements/1.1/"
   xmlns:cc="http://creativecommons.org/ns#"
   xmlns:rdf="http://www.w3.org/1999/02/22-rdf-syntax-ns#"
   xmlns:svg="http://www.w3.org/2000/svg"
   xmlns="http://www.w3.org/2000/svg"
   xmlns:sodipodi="http://sodipodi.sourceforge.net/DTD/sodipodi-0.dtd"
   xmlns:inkscape="http://www.inkscape.org/namespaces/inkscape"
   id="visual"
   viewBox="0 0 817.14679 267.18561"
   width="817.14679"
   height="267.18561"
   version="1.1"
   sodipodi:docname="right-2.svg"
   inkscape:version="1.0.2 (e86c870879, 2021-01-15)">
  <metadata
     id="metadata983">
    <rdf:RDF>
      <cc:Work
         rdf:about="">
        <dc:format>image/svg+xml</dc:format>
        <dc:type
           rdf:resource="http://purl.org/dc/dcmitype/StillImage" />
        <dc:title></dc:title>
      </cc:Work>
    </rdf:RDF>
  </metadata>
  <defs
     id="defs981" />
  <sodipodi:namedview
     pagecolor="#ffffff"
     bordercolor="#666666"
     borderopacity="1"
     objecttolerance="10"
     gridtolerance="10"
     guidetolerance="10"
     inkscape:pageopacity="0"
     inkscape:pageshadow="2"
     inkscape:window-width="2560"
     inkscape:window-height="1367"
     id="namedview979"
     showgrid="false"
     inkscape:zoom="1.2216667"
     inkscape:cx="616.92942"
     inkscape:cy="139.81358"
     inkscape:window-x="0"
     inkscape:window-y="0"
     inkscape:window-maximized="1"
     inkscape:current-layer="visual"
     inkscape:snap-page="true" />
  <path
     d="m 167.82806,232.45764 c -64.55674,6.92122 -105.817092,-39.80952 -57.56955,-90.07159 22.09843,-25.81607 76.75885,-46.02923 103.95885,-44.02923 25.61122,4.62168 80.37522,26.21564 116.62833,27.00473 27.3,0 49.57535,5.82405 76.87535,-6.17595 27.3,-12 54.7,-8 82,5 27.3,13 54.7,35 81.8,48 27.2,13 54.2,17 81.4,18 94.94058,1.11173 149.72841,-13.92879 164.22575,-83.87842 v 92.39159 C 752.14573,178.0895 692.63501,248.7065 646.99882,245.7584 537.69928,236.46964 496.95994,183.41545 406.47477,200.42049 319.86149,226.10976 333.0748,152.50338 259.26745,159.31892 c -27.2,2 -49.23197,-20.09027 -76.43197,-14.09027 -86.144389,13.85174 -65.5914,96.82572 -15.00742,87.22899 z"
     fill="#5c78ff"
     id="path970"
     sodipodi:nodetypes="ccccssccccccccc" />
  <path
     d="M 161.35568,94.208107 C 198.85452,90.542171 330.6642,42.585809 671.85724,147.49142 l 145.28955,-51.234758 0,23.198448 c -31.36306,101.15461 -173.97209,110.18388 -245.19999,77.012 -27.1,-13 -54.5,-35 -81.8,-48 -27.3,-13 -54.7,-17 -82,-5 C 356.69981,173.985 322.55923,140.65357 292.58546,130.35373 151.41241,75.988179 24.648361,190.10103 167.82806,232.45764 -8.8598283,312.37061 65.131463,87.734217 161.35568,94.208107 Z"
     fill="#345fff"
     id="path972"
     sodipodi:nodetypes="cccccscccc" />
  <path
     d="M 228.00597,31.077489 C 417.24519,146.91105 773.30666,56.564063 817.14679,0 v 106.30718 c -37.12179,-4.41927 -74.28854,59.28081 -110.94977,65.04109 -81.31605,20.47887 -169.63621,-69.17629 -219.57217,-53.67912 0,0 -60.56381,17.05524 -124.53447,-21.383842 C 200.29878,33.910017 -56.365917,225.77107 167.82806,232.45764 -72.593729,370.14289 105.98971,-27.09764 228.00597,31.077489 Z"
     fill="#2d50df"
     id="path974"
     sodipodi:nodetypes="cccccccc" />
  <g
     inkscape:groupmode="layer"
     id="layer2"
     inkscape:label="right" />
</svg>
