<?xml version="1.0" encoding="UTF-8" standalone="no"?>
<svg
   xmlns:dc="http://purl.org/dc/elements/1.1/"
   xmlns:cc="http://creativecommons.org/ns#"
   xmlns:rdf="http://www.w3.org/1999/02/22-rdf-syntax-ns#"
   xmlns:svg="http://www.w3.org/2000/svg"
   xmlns="http://www.w3.org/2000/svg"
   xmlns:sodipodi="http://sodipodi.sourceforge.net/DTD/sodipodi-0.dtd"
   xmlns:inkscape="http://www.inkscape.org/namespaces/inkscape"
   id="visual"
   viewBox="0 0 817.14679 267.18561"
   width="817.14679"
   height="267.18561"
   version="1.1"
   sodipodi:docname="right.svg"
   inkscape:version="1.0.2 (e86c870879, 2021-01-15)">
  <metadata
     id="metadata983">
    <rdf:RDF>
      <cc:Work
         rdf:about="">
        <dc:format>image/svg+xml</dc:format>
        <dc:type
           rdf:resource="http://purl.org/dc/dcmitype/StillImage" />
        <dc:title></dc:title>
      </cc:Work>
    </rdf:RDF>
  </metadata>
  <defs
     id="defs981" />
  <sodipodi:namedview
     pagecolor="#ffffff"
     bordercolor="#666666"
     borderopacity="1"
     objecttolerance="10"
     gridtolerance="10"
     guidetolerance="10"
     inkscape:pageopacity="0"
     inkscape:pageshadow="2"
     inkscape:window-width="2560"
     inkscape:window-height="1367"
     id="namedview979"
     showgrid="false"
     inkscape:zoom="1.2216667"
     inkscape:cx="158.53924"
     inkscape:cy="139.81358"
     inkscape:window-x="0"
     inkscape:window-y="0"
     inkscape:window-maximized="1"
     inkscape:current-layer="layer2" />
  <path
     d="m 82.037129,232.45764 c -64.55674,6.92122 -89.3210895,-39.47543 -41.07354,-89.7375 22.09843,-25.81607 93.757451,-23.53454 120.957451,-21.53454 27.1,2 54.5,-8 81.8,1 27.3,9 54.7,37 82,37 27.3,0 54.7,-28 82,-40 27.3,-12 54.7,-8 82,5 27.3,13 54.7,35 81.8,48 27.2,13 54.2,17 81.4,18 27.1,1 54.5,-1 81.80003,4 27.3,5 54.7,17 68.3,23 l 13.7,6 v 44 l -13.7,-3 c -13.6,-3 -41,-9 -68.3,-7 -27.30003,2 -54.70003,12 -81.80003,7 -27.2,-5 -54.2,-25 -81.4,-37 -27.1,-12 -54.5,-16 -81.8,-20 -27.3,-4 -54.7,-8 -82,9 -27.3,17 -54.7,55 -82,47 -27.3,-8 -54.7,-62 -82,-80 -27.3,-18 -54.7,0 -81.8,2 -27.2,2 -37.67649,-45.95695 -64.876491,-39.95695 -86.14439,13.85174 -65.5914,96.82572 -15.00742,87.22899 z"
     fill="#5c78ff"
     id="path970"
     sodipodi:nodetypes="cccssssccsccccsccssssccc" />
  <path
     d="m 162.3468,90.46711 c 588.80917,-20.25634 149.55189,6.22442 149.51298,0.61642 -3.19449,-27.27793 68.98702,-31.61642 96.28702,-34.61642 27.3,-3 54.7,21 82,33 27.3,12 54.7,12 81.8,17 27.2,5 54.2,15 81.4,22 27.1,7 54.5,11 81.79997,16 27.3,5 54.7,11 68.3,14 l 13.7,3 v 86 l -13.7,-6 c -13.6,-6 -41,-18 -68.3,-23 -27.29997,-5 -54.69997,-3 -81.79997,-4 -27.2,-1 -54.2,-5 -81.4,-18 -27.1,-13 -54.5,-35 -81.8,-48 -27.3,-13 -54.7,-17 -82,-5 -27.3,12 -54.7,40 -82,40 -27.3,0 -54.7,-28 -82,-37 C 102.97375,92.10156 -61.142571,190.10103 82.037129,232.45764 -94.023231,275.12221 66.122579,83.99322 162.3468,90.46711 Z"
     fill="#345fff"
     id="path972"
     sodipodi:nodetypes="ccssccsccccsccsssccc" />
  <path
     d="m 205.99729,48.94738 c 135.93715,60.01867 271.49436,-94.95259 351.67077,0.3851 C 671.66307,194.69998 748.72087,51.33564 816.92847,0 l 0.2183,163.46711 -13.7,-3 c -13.6,-3 -41,-9 -68.3,-14 -27.29997,-5 -54.69997,-9 -81.79997,-16 -27.2,-7 -48.25829,9.95647 -75.45829,4.95647 -27.1,-5 -60.44171,-31.95647 -87.74171,-43.95647 C 390.94539,55.09315 288.63834,187.38552 209.45681,95.69424 204.35314,62.82238 -128.836,209.70566 82.037129,232.45764 -126.93093,294.42387 118.96148,10.75214 205.99729,48.94738 Z"
     fill="#2d50df"
     id="path974"
     sodipodi:nodetypes="cccccscccccc" />
  <g
     inkscape:groupmode="layer"
     id="layer2"
     inkscape:label="right" />
</svg>
