<?xml version="1.0" encoding="UTF-8" standalone="no"?>
<svg
   xmlns:dc="http://purl.org/dc/elements/1.1/"
   xmlns:cc="http://creativecommons.org/ns#"
   xmlns:rdf="http://www.w3.org/1999/02/22-rdf-syntax-ns#"
   xmlns:svg="http://www.w3.org/2000/svg"
   xmlns="http://www.w3.org/2000/svg"
   xmlns:sodipodi="http://sodipodi.sourceforge.net/DTD/sodipodi-0.dtd"
   xmlns:inkscape="http://www.inkscape.org/namespaces/inkscape"
   version="1.1"
   x="0px"
   y="0px"
   width="388.25201"
   height="108.426"
   viewBox="0 0 388.25201 108.426"
   xml:space="preserve"
   id="svg21"
   sodipodi:docname="juxt-mod.svg"
   inkscape:version="1.0.2 (e86c870879, 2021-01-15)"><metadata
   id="metadata27"><rdf:RDF><cc:Work
       rdf:about=""><dc:format>image/svg+xml</dc:format><dc:type
         rdf:resource="http://purl.org/dc/dcmitype/StillImage" /><dc:title /></cc:Work></rdf:RDF></metadata><defs
   id="defs25" /><sodipodi:namedview
   pagecolor="#ffffff"
   bordercolor="#666666"
   borderopacity="1"
   objecttolerance="10"
   gridtolerance="10"
   guidetolerance="10"
   inkscape:pageopacity="0"
   inkscape:pageshadow="2"
   inkscape:window-width="2143"
   inkscape:window-height="1127"
   id="namedview23"
   showgrid="false"
   inkscape:zoom="4.0623285"
   inkscape:cx="191.01876"
   inkscape:cy="73.924042"
   inkscape:window-x="173"
   inkscape:window-y="153"
   inkscape:window-maximized="0"
   inkscape:current-layer="svg21"
   inkscape:document-rotation="0" />
  <g
   id="g19"
   transform="translate(-6.125,-10.803)">
    <!-- visibility is visible/hidden -->
    <g
   id="background"
   style="visibility:hidden">
      <rect
   x="0.25"
   fill="#FF0000"
   width="400"
   height="130"
   id="rect2"
   style="fill:none"
   y="0" />
    </g>


    <g
   transform="translate(-250,-220)"
   id="g17">
      <g
   id="juxt">
        <path
   fill="#ffffff"
   d="m 282.606,320.424 c 11.27,0.101 18.179,-2.543 20.722,-7.93 2.543,-5.386 3.815,-12.916 3.815,-22.592 v -59.099 h 23.49 v 63.886 c 0,1.197 -0.026,2.319 -0.075,3.367 -0.051,1.047 -0.074,2.121 -0.074,3.217 -0.299,4.689 -1.148,9.276 -2.543,13.764 -1.398,4.489 -3.691,8.529 -6.883,12.119 -4.488,5.087 -9.701,8.206 -15.634,9.351 -5.936,1.148 -12.045,1.721 -18.328,1.721 -0.3,0 -0.576,0 -0.823,0 -0.25,0 -0.475,0 -0.673,0 h -29.475 v -17.804 z"
   id="path5"
   style="fill:#333333;fill-opacity:1" />
        <path
   fill="#ffffff"
   d="m 373.541,295.429 c 0,8.978 1.577,15.685 4.735,20.123 3.156,4.439 9.567,6.658 19.236,6.658 9.666,0 16.054,-2.219 19.161,-6.658 3.107,-4.439 4.661,-11.098 4.661,-19.976 v -63.773 h 22.344 v 64.217 c 0,1.283 0,2.566 0,3.847 0,1.283 -0.051,2.515 -0.15,3.699 -0.099,3.75 -0.567,7.424 -1.405,11.023 -0.839,3.602 -2.392,6.98 -4.661,10.136 -3.158,4.342 -7.227,7.547 -12.207,9.618 -4.983,2.072 -10.136,3.404 -15.463,3.995 -2.072,0.296 -4.143,0.492 -6.215,0.592 -2.071,0.097 -4.094,0.148 -6.066,0.148 -1.875,0 -3.825,-0.051 -5.845,-0.148 -2.023,-0.1 -4.069,-0.296 -6.141,-0.592 -5.426,-0.492 -10.653,-1.775 -15.685,-3.847 -5.031,-2.072 -9.174,-5.327 -12.429,-9.766 -2.271,-3.156 -3.798,-6.533 -4.587,-10.136 -0.791,-3.6 -1.234,-7.273 -1.332,-11.023 -0.099,-1.183 -0.148,-2.416 -0.148,-3.699 0,-1.281 0,-2.516 0,-3.699 v -64.365 h 22.195 v 63.626 z"
   id="path7"
   style="fill:#333333;fill-opacity:1" />
        <path
   fill="#ffffff"
   d="m 546.232,250.506 12.24,-18.702 h 85.905 v 18.702 h -34.861 v 88.573 h -23.34 v -88.573 z"
   id="path9"
   style="fill:#333333;fill-opacity:1" />
        <polygon
   fill="#ffffff"
   points="490.272,285.516 452.868,339.229 479.499,339.229 503.438,301.824 526.03,339.229 551.834,339.229 478.443,231.804 454.064,231.804 "
   id="polygon11"
   style="fill:#333333;fill-opacity:1" />
        <g
   id="orange-tick">
          <!-- fill="#FFC700" -->
          <polygon
   fill="#f4901d"
   points="505.046,261.898 518.093,279.489 550.567,231.804 524.534,231.804 "
   id="polygon13" />
        </g>
      </g>
    </g>
  </g>
</svg>
