<?xml version="1.0" encoding="UTF-8" standalone="no"?>
<svg
   xmlns:dc="http://purl.org/dc/elements/1.1/"
   xmlns:cc="http://creativecommons.org/ns#"
   xmlns:rdf="http://www.w3.org/1999/02/22-rdf-syntax-ns#"
   xmlns:svg="http://www.w3.org/2000/svg"
   xmlns="http://www.w3.org/2000/svg"
   xmlns:sodipodi="http://sodipodi.sourceforge.net/DTD/sodipodi-0.dtd"
   xmlns:inkscape="http://www.inkscape.org/namespaces/inkscape"
   viewBox="0 0 1013 99.5"
   version="1.1"
   id="svg4"
   sodipodi:docname="healthunlocked.svg"
   width="1013"
   height="99.5"
   inkscape:version="1.0.2 (e86c870879, 2021-01-15)">
  <metadata
     id="metadata10">
    <rdf:RDF>
      <cc:Work
         rdf:about="">
        <dc:format>image/svg+xml</dc:format>
        <dc:type
           rdf:resource="http://purl.org/dc/dcmitype/StillImage" />
      </cc:Work>
    </rdf:RDF>
  </metadata>
  <defs
     id="defs8" />
  <sodipodi:namedview
     pagecolor="#ffffff"
     bordercolor="#666666"
     borderopacity="1"
     objecttolerance="10"
     gridtolerance="10"
     guidetolerance="10"
     inkscape:pageopacity="0"
     inkscape:pageshadow="2"
     inkscape:window-width="1789"
     inkscape:window-height="652"
     id="namedview6"
     showgrid="false"
     inkscape:zoom="0.9575"
     inkscape:cx="512.2"
     inkscape:cy="49.8"
     inkscape:window-x="609"
     inkscape:window-y="425"
     inkscape:window-maximized="0"
     inkscape:current-layer="svg4" />
  <path
     d="M 0,97.8 H 13.7 V 54.9 H 64.3 V 97.8 H 78 V 0.2 H 64.3 V 43.1 H 13.7 V 0.2 H 0 Z m 96.9,-35 c 0,20.7 15.1,36.6 37,36.6 16.7,0 27.1,-10 27.1,-10 l -5.5,-9.8 c 0,0 -8.7,8.2 -20.7,8.2 -12.4,0 -23.4,-7.7 -24.1,-23.1 h 51 c 0,0 0.4,-4 0.4,-5.8 0,-18.1 -10.5,-32.8 -30.3,-32.8 C 112,26.2 96.9,40.5 96.9,62.8 Z m 14.2,-8.2 c 1.9,-11.5 10.2,-17.8 20.5,-17.8 9,0 16.5,5.8 16.9,17.8 z m 61.7,23.5 c 0,14 11.8,21.3 23.8,21.3 16.7,0 22.4,-13.8 22.4,-13.8 h 0.3 c 0,0 -0.3,2.4 -0.3,5.5 v 6.6 h 12.4 V 53.5 c 0,-17.7 -10,-27.4 -27.6,-27.4 -16,0 -26.1,8.3 -26.1,8.3 l 5.5,9.8 c 0,0 8.7,-6.8 19.5,-6.8 8.8,0 15.3,3.9 15.3,15.3 v 1.2 h -3 c -11.8,0.2 -42.2,1.2 -42.2,24.2 z m 13.5,-0.7 c 0,-12.6 18.2,-13.3 28.3,-13.3 h 3.5 v 2.2 c 0,10.4 -7.3,22.3 -18.7,22.3 -8.6,0 -13.1,-5.5 -13.1,-11.2 z m 64.3,1.3 c 0,17.6 11.2,19.6 18.8,19.6 2.4,0 4.4,-0.3 4.4,-0.3 V 86.1 c 0,0 -1.1,0.1 -2.4,0.1 -4.1,0 -7.5,-1.5 -7.5,-10 V 0 H 250.5 V 78.7 Z M 291,72.2 c 0,23.4 17.8,26.1 26.8,26.1 2.8,0 4.7,-0.3 4.7,-0.3 V 86.1 c 0,0 -1.2,0.3 -3.2,0.3 -5.1,0 -14.9,-1.8 -14.9,-15.8 V 39.5 h 16.9 V 28.8 H 304.4 V 8.6 h -13 v 20.2 h -9.5 v 10.8 h 9.1 z m 46.6,25.6 H 351 V 65 c 0,-3.3 0.3,-6.5 1.1,-9.3 2.9,-10.1 11.6,-17.3 22.1,-17.3 11.2,0 13.3,7.7 13.3,17.6 v 41.8 h 13.4 V 53 c 0,-17.8 -7.6,-26.8 -24.1,-26.8 -14,0 -22.8,8.8 -25.9,15.6 h -0.3 c 0,0 0.3,-2.5 0.3,-5.8 V 0.2 h -13.4 v 97.6 z m 84.3,-34.6 c 0,21.7 15.6,36.2 38.4,36.2 22.8,0 38.4,-14.5 38.4,-36.2 V 0.2 H 485 V 63 c 0,15.2 -9.8,23.9 -24.9,23.9 -14.9,0 -24.6,-8.7 -24.6,-23.6 v -63 h -13.7 v 62.9 z m 98.8,34.6 h 13.5 V 65 c 0,-3.5 0.3,-6.6 1.1,-9.4 2.9,-10.1 11.5,-17.1 22.1,-17.1 11.2,0 13.3,7.7 13.3,17.6 v 41.7 h 13.4 V 53 c 0,-17.8 -7.6,-26.8 -24.1,-26.8 -15.2,0 -23.5,10 -26.3,16 h -0.3 c 0,0 0.3,-2.4 0.3,-5.1 v -9.3 h -13 z m 82.6,-19.1 c 0,17.6 11.2,19.6 18.8,19.6 2.4,0 4.4,-0.3 4.4,-0.3 V 86.1 c 0,0 -1.1,0.1 -2.4,0.1 -4.1,0 -7.5,-1.5 -7.5,-10 V 0 h -13.4 v 78.7 z m 32.3,-16 c 0,21.3 16.9,36.8 37.7,36.8 20.9,0 37.7,-15.5 37.7,-36.8 0,-21.2 -16.9,-36.5 -37.7,-36.5 -20.8,0 -37.7,15.3 -37.7,36.5 z m 13.7,0 c 0,-14.5 10.9,-24.9 24.1,-24.9 13.3,0 24.1,10.4 24.1,24.9 0,14.7 -10.8,25.2 -24.1,25.2 -13.2,-0.1 -24.1,-10.6 -24.1,-25.2 z m 72.7,0.1 c 0,21 15.5,36.6 37.5,36.6 18.2,0 27.9,-11.2 27.9,-11.2 L 782,78.4 c 0,0 -8.6,9.4 -21.6,9.4 -14.5,0 -24.7,-10.9 -24.7,-25.2 0,-14.4 10.2,-24.9 24.3,-24.9 11.9,0 19.4,8 19.4,8 l 6.4,-9.4 c 0,0 -8.7,-10.2 -26.3,-10.2 -22,0.1 -37.5,16 -37.5,36.7 z m 80.6,35 H 816 V 64.9 h 10.1 l 21,32.9 h 15.6 L 836.8,59 V 58.7 L 860,27.9 h -15.2 l -19.1,25.7 h -9.8 V 0.2 h -13.4 v 97.6 z m 66.8,-35 c 0,20.7 15.1,36.6 37,36.6 16.7,0 27.1,-10 27.1,-10 L 928,79.6 c 0,0 -8.7,8.2 -20.7,8.2 -12.4,0 -23.4,-7.7 -24.1,-23.1 h 51 c 0,0 0.4,-4 0.4,-5.8 0,-18.1 -10.5,-32.8 -30.3,-32.8 -19.8,0.1 -34.9,14.4 -34.9,36.7 z m 14.2,-8.2 c 1.9,-11.5 10.2,-17.8 20.5,-17.8 9,0 16.5,5.8 16.9,17.8 z m 62.8,8.2 c 0,21.7 11.9,36.6 30.8,36.6 17.3,0 22.9,-13 22.9,-13 h 0.3 c 0,0 -0.1,1.9 -0.1,4.7 v 6.6 H 1013 V 0.1 h -13.4 v 32.3 c 0,2.6 0.3,4.7 0.3,4.7 h -0.3 c 0,0 -5.4,-11.1 -21.6,-11.1 -18.5,0.2 -31.6,14.5 -31.6,36.8 z m 13.7,0 c 0,-15.9 9.1,-25 20.2,-25 13.3,0 19.8,12.4 19.8,24.9 0,17.8 -9.8,25.2 -20.2,25.2 C 968.2,87.8 960.1,78 960.1,62.8 Z m 0,0"
     fill-rule="evenodd"
     clip-rule="evenodd"
     fill="#32b678"
     id="path2" />
</svg>
