<svg fill="none" height="49" viewBox="0 0 192 49" width="192" xmlns="http://www.w3.org/2000/svg"><path d="m176.018 13.686c-9.013 0-16.043 7.0641-16.043 16.215 0 9.0824 7.03 16.1465 16.043 16.1465s15.982-7.0641 15.982-16.1465c0-9.1447-6.969-16.215-15.982-16.215zm-.061 21.566c-2.941 0-5.307-2.4045-5.307-5.351 0-3.0088 2.366-5.4133 5.307-5.4133 3.002 0 5.368 2.4045 5.368 5.4133 0 2.9465-2.366 5.351-5.368 5.351z" fill="#ff3d84"/><g fill="#000"><path d="m39.8949 10.7956c-2.9405 0-5.3065-2.40457-5.3065-5.35105 0-3.00877 2.366-5.4133 5.3065-5.4133 3.0024 0 5.3684 2.40453 5.3684 5.4133 0 2.94025-2.366 5.35105-5.3684 5.35105z"/><path d="m19.0394 45.138v-18.6568c0-2.2177-1.4641-4.1612-4.4602-4.1612-2.9282 0-4.79387 1.8812-4.79387 4.2982v18.5261h-9.78533v-30.4117h8.98842v4.0927h.06795c1.19843-3.2206 4.32433-5.0333 9.18613-5.0333 6.5915 0 10.5822 3.7563 10.5822 10.2037v21.1423z"/><path d="m35.0088 45.1378v-30.4054h9.8533v30.4054z"/><path d="m61.634 49c-6.19-.2679-10.3166-3.4884-10.3166-10.8079v-38.1921h9.6494v36.9836c0 2.4855 1.3961 3.8248 4.0587 4.0304z"/><path d="m95.6478 28.2252-4.3243 4.429h-14.7769c.4634 2.4855 3.7931 5.3012 8.9205 5.3012 3.1259 0 6.3259-.9406 8.3213-2.2799l-.9329 8.4594c-2.261 1.2085-5.7266 2.0121-9.5876 2.0121-9.1861 0-16.5745-6.4412-16.5745-16.377 0-9.7987 7.0548-16.0405 15.7096-16.0405 8.3892 0 13.5105 5.8369 13.5105 12.1472 0 .7351-.1298 1.7442-.2657 2.3485zm-13.2448-7.1202c-2.8602 0-5.2571 2.2177-5.8564 4.9648h10.1869c0-.1993.068-.4049.068-.6728-.0062-2.0743-1.8039-4.292-4.3985-4.292z"/><path d="m119.543 45.138v-18.6568c0-2.2177-1.464-4.1612-4.46-4.1612-2.929 0-4.794 1.8812-4.794 4.2982v18.5261h-9.786v-30.4117h8.989v4.0927h.068c1.198-3.2206 4.324-5.0333 9.186-5.0333 6.591 0 10.582 3.7563 10.582 10.2037v21.1423z"/><path d="m145.038 45.8105c-4.127 0-7.123-.8721-9.588-2.1491l-.865-8.7273c2.663 1.8813 6.122 3.2891 9.452 3.2891 1.798 0 2.928-.9406 2.928-2.0806 0-1.277-1-1.8128-2.73-2.3485-5.789-1.6757-9.254-4.6346-9.254-9.9358 0-5.9739 4.794-9.7987 11.317-9.7987 3.725 0 7.389 1.0091 8.921 1.8127l-1.662 7.251c-1.464-.8036-3.861-1.6757-6.258-1.6757-1.6 0-2.663.7413-2.663 1.9435 0 1.14.797 1.7442 2.663 2.2177 6.789 1.8127 9.588 5.2326 9.588 10.3344-.007 5.1642-3.732 9.8673-11.849 9.8673z"/></g></svg>