<svg width="922" height="194" viewBox="0 0 922 194" fill="none" xmlns="http://www.w3.org/2000/svg">
<g clip-path="url(#clip0_2022_8532)">
<path fill-rule="evenodd" clip-rule="evenodd" d="M132.172 0V35.2242H41.3367V79.2545H120.061V111.81H41.3367V190.531H0V0H132.172ZM177.979 0V190.531H140.592V0H177.979ZM259.073 165.712C248.541 165.712 240.467 162.954 234.85 157.44C229.233 151.925 226.161 143.03 225.635 130.755H323.842C324.544 120.081 323.667 109.851 321.209 100.067C318.752 90.2823 314.759 81.5652 309.23 73.9155C303.7 66.2657 296.629 60.1727 288.035 55.6362C279.434 51.0998 269.341 48.8315 257.756 48.8315C247.394 48.8315 237.965 50.6995 229.452 54.4354C220.939 58.1713 213.611 63.2859 207.468 69.7793C201.324 76.2726 196.585 83.9668 193.25 92.8618C189.915 101.757 188.247 111.363 188.247 121.682C188.247 132.356 189.871 142.14 193.118 151.035C196.365 159.93 200.973 167.58 206.941 173.984C212.909 180.389 220.193 185.325 228.794 188.794C237.395 192.263 247.049 193.998 257.756 193.998C273.203 193.998 286.367 190.44 297.25 183.324C308.133 176.214 316.207 164.378 321.473 147.833H288.561C287.333 152.103 283.998 156.15 278.556 159.975C273.115 163.799 266.62 165.712 259.073 165.712ZM256.703 77.3845C265.83 77.3845 272.632 79.8815 277.108 84.8563C281.584 89.8375 284.7 97.1314 286.455 106.738H225.635C225.81 104.07 226.381 101.045 227.346 97.6651C228.311 94.285 229.979 91.0828 232.349 88.0585C234.718 85.0342 237.878 82.4991 241.827 80.4533C245.776 78.4074 250.735 77.3845 256.703 77.3845ZM323.315 52.5732H365.968L389.928 88.598L413.624 52.5732H454.96L410.201 117.151L460.49 190.535H417.836L389.401 147.038L360.965 190.535H319.102L368.074 117.952L323.315 52.5732ZM463.116 0V31.2215H500.503V0H463.116ZM500.503 190.531V52.5695H463.116V190.531H500.503ZM524.991 184.125C526.219 185.116 527.523 186.018 528.871 186.85L598.43 181.99C600.273 180.535 602.041 178.94 603.715 177.186C603.828 178.673 603.997 180.134 604.223 181.583L640.758 179.029L640.742 178.919C640.684 178.524 640.627 178.133 640.576 177.72C639.874 172.027 639.523 166.068 639.523 159.841V88.0585C639.523 79.6972 637.68 72.9815 633.993 67.9113C630.307 62.8412 625.568 58.8829 619.776 56.0365C613.983 53.1901 607.576 51.2777 600.555 50.2992C593.534 49.3208 586.601 48.8315 579.755 48.8315C572.208 48.8315 564.704 49.5876 557.244 51.0998C549.784 52.6119 543.07 55.147 537.102 58.705C531.134 62.263 526.219 66.9773 522.358 72.8481C518.496 78.7188 516.302 86.1016 515.776 94.9966H553.163C553.865 87.5248 556.322 82.1878 560.535 78.9856C564.748 75.7834 570.54 74.1823 577.912 74.1823C581.247 74.1823 584.363 74.4047 587.259 74.8494C590.155 75.2942 592.694 76.1837 594.895 77.5179C597.089 78.8522 598.844 80.7201 600.16 83.1218C601.477 85.5234 602.135 88.7701 602.135 92.8618C602.311 96.7756 601.17 99.7554 598.712 101.801C596.255 103.847 592.92 105.404 588.707 106.471C584.495 107.539 579.668 108.339 574.226 108.873C568.785 109.407 563.256 110.118 557.639 111.008C552.022 111.897 546.449 113.098 540.92 114.61C535.391 116.122 530.476 118.39 526.176 121.415C521.875 124.439 518.365 128.486 515.644 133.556C512.923 138.627 511.563 145.075 511.563 152.903C511.563 160.019 512.748 166.157 515.117 171.316C517.487 176.475 520.778 180.744 524.991 184.125ZM550.793 142.496C552.022 140.183 553.646 138.271 555.664 136.759C557.683 135.246 560.052 134.046 562.773 133.156C565.494 132.267 568.258 131.555 571.067 131.021C574.051 130.488 577.035 130.043 580.019 129.687C583.003 129.331 585.855 128.887 588.576 128.353C591.296 127.819 593.841 127.152 596.211 126.351C598.581 125.551 600.555 124.439 602.135 123.016V137.159C602.135 139.294 601.916 142.14 601.477 145.698C601.038 149.256 599.853 152.77 597.922 156.239C595.992 159.708 593.008 162.688 588.971 165.178C584.933 167.669 579.229 168.914 571.857 168.914C568.873 168.914 565.976 168.647 563.168 168.114C560.36 167.58 557.902 166.646 555.796 165.312C553.69 163.977 552.022 162.154 550.793 159.841C549.565 157.528 548.95 154.682 548.95 151.302C548.95 147.744 549.565 144.809 550.793 142.496ZM693.231 175.363V118.213C693.231 104.158 695.513 94.0626 700.076 87.9251C704.64 81.7875 712.012 78.7188 722.193 78.7188C731.145 78.7188 737.376 81.5207 740.886 87.1245C744.397 92.7284 746.152 101.223 746.152 112.609V171.665L783.539 169.054V105.671C783.539 97.1314 782.793 89.3483 781.302 82.3212C779.81 75.2942 777.22 69.3345 773.534 64.4423C769.848 59.55 764.802 55.7252 758.395 52.9677C751.988 50.2103 743.783 48.8315 733.778 48.8315C725.879 48.8315 718.156 50.655 710.608 54.302C703.06 57.9489 696.917 63.7751 692.178 71.7806H691.388V52.5674H655.843V177.974L693.231 175.363ZM832.771 159.841C833.98 162.128 835.629 163.939 837.704 165.267L795.86 168.19C794.324 163.73 793.54 158.64 793.54 152.903C793.54 145.075 794.901 138.627 797.621 133.556C800.342 128.486 803.852 124.439 808.153 121.415C812.453 118.39 817.368 116.122 822.897 114.61C828.426 113.098 833.999 111.897 839.616 111.008C845.233 110.118 850.762 109.407 856.203 108.873C861.645 108.339 866.472 107.539 870.684 106.471C874.897 105.404 878.232 103.847 880.689 101.801C883.147 99.7554 884.288 96.7756 884.112 92.8618C884.112 88.7701 883.454 85.5234 882.138 83.1218C880.821 80.7201 879.066 78.8522 876.872 77.5179C874.671 76.1837 872.133 75.2942 869.236 74.8494C866.34 74.4047 863.224 74.1823 859.889 74.1823C852.517 74.1823 846.725 75.7834 842.512 78.9856C838.3 82.1878 835.842 87.5248 835.14 94.9966H797.753C798.279 86.1016 800.474 78.7188 804.335 72.8481C808.197 66.9774 813.112 62.263 819.079 58.705C825.047 55.147 831.761 52.6119 839.221 51.0998C846.681 49.5876 854.185 48.8315 861.733 48.8315C868.578 48.8315 875.511 49.3208 882.533 50.2992C889.554 51.2777 895.96 53.1901 901.753 56.0365C907.545 58.8829 912.284 62.8412 915.97 67.9113C919.656 72.9815 921.5 79.6972 921.5 88.0585V159.409L874.402 162.7C876.728 160.775 878.571 158.628 879.9 156.239C881.83 152.77 883.015 149.256 883.454 145.698C883.893 142.14 884.112 139.294 884.112 137.159V123.016C882.532 124.439 880.558 125.551 878.188 126.352C875.819 127.152 873.273 127.819 870.553 128.353C867.832 128.887 864.98 129.331 861.996 129.687C859.012 130.043 856.028 130.488 853.044 131.021C850.236 131.555 847.471 132.267 844.75 133.156C842.03 134.046 839.66 135.247 837.641 136.759C835.623 138.271 833.999 140.183 832.771 142.496C831.542 144.809 830.927 147.744 830.927 151.302C830.927 154.682 831.542 157.528 832.771 159.841Z" fill="#DFBE4A"/>
</g>
<defs>
<clipPath id="clip0_2022_8532">
<rect width="921.5" height="194" fill="white"/>
</clipPath>
</defs>
</svg>
