<?xml version="1.0" encoding="UTF-8" standalone="no"?>
<svg
   width="780.79053"
   height="531.19525"
   viewBox="0 0 780.79052 531.19525"
   fill="none"
   version="1.1"
   id="svg48"
   sodipodi:docname="nubank.svg"
   inkscape:version="1.2.2 (b0a8486541, 2022-12-01)"
   xmlns:inkscape="http://www.inkscape.org/namespaces/inkscape"
   xmlns:sodipodi="http://sodipodi.sourceforge.net/DTD/sodipodi-0.dtd"
   xmlns="http://www.w3.org/2000/svg"
   xmlns:svg="http://www.w3.org/2000/svg">
  <defs
     id="defs52" />
  <sodipodi:namedview
     id="namedview50"
     pagecolor="#ffffff"
     bordercolor="#999999"
     borderopacity="1"
     inkscape:showpageshadow="0"
     inkscape:pageopacity="0"
     inkscape:pagecheckerboard="0"
     inkscape:deskcolor="#d1d1d1"
     showgrid="false"
     inkscape:zoom="0.50020601"
     inkscape:cx="438.8192"
     inkscape:cy="133.94481"
     inkscape:window-width="1737"
     inkscape:window-height="1408"
     inkscape:window-x="26"
     inkscape:window-y="23"
     inkscape:window-maximized="0"
     inkscape:current-layer="svg48" />
  <rect
     width="780.79053"
     height="531.19525"
     fill="#820ad1"
     id="rect44"
     ry="70.947319"
     x="0"
     y="0" />
  <path
     d="m 104.16719,195.03605 c 8.608,-16.532 21.56501,-30.401 37.47501,-40.11 15.909,-9.709 34.168,-14.89 52.806,-14.985 1.366,0 2.701,0 4.035,0.078 -17.443,18.229 -26.786,40.525 -28.152,74.611 -0.298,7.192 0,42.252 0,81.646 0,58.455 0,126.44 0,126.44 H 92.957193 v -138.012 c 0,-14.241 -0.785,-28.858 0,-43.241 0.879,-16.046 3.674,-31.794 11.209997,-46.427 z M 270.3782,109.43406 c -13.487,-0.146 -26.857,2.506 -39.267,7.79 -12.41,5.283 -23.589,13.082 -32.832,22.90499 57.654,0 94.976,39.253 97.064,101.774 0.471,14.335 0.628,91.066 0.628,91.066 v 89.684 h 77.359 v -121.212 c 0,-36.646 0.298,-68.378 -2.261,-90.218 -7.128,-60.967 -44.434,-101.78899 -100.691,-101.78899 z m 407.88,188.66299 c 0.79,-14.382 0,-28.984 0,-43.225 V 116.86006 h -77.342 c 0,0 0,67.98599 0,126.42499 0,39.347 0.298,74.423 0,81.645 -1.366,34.103 -10.708,56.382 -28.152,74.611 1.335,0 2.685,0.094 4.035,0.094 18.638,-0.094 36.897,-5.276 52.807,-14.985 15.91,-9.709 28.867,-23.577 37.472,-40.109 7.54,-14.681 10.33,-30.413 11.18,-46.444 z m -177.42,132.014 c 13.487,0.146 26.857,-2.507 39.267,-7.79 12.41,-5.283 23.589,-13.083 32.832,-22.905 -57.654,0 -94.976,-39.253 -97.064,-101.774 -0.471,-14.351 -0.675,-49.945 -0.675,-91.176 v -89.68399 l -77.312,0.078 v 121.32199 c 0,36.646 -0.298,68.378 2.261,90.218 7.16,60.967 44.465,101.711 100.691,101.711 z"
     fill="#ffffff"
     id="path46" />
</svg>
