<?xml version="1.0" encoding="UTF-8" standalone="no"?>
<!-- Created with Inkscape (http://www.inkscape.org/) -->

<svg
   version="1.1"
   id="svg18"
   width="492.35852"
   height="198.25386"
   viewBox="0 0 492.35852 198.25386"
   sodipodi:docname="clojurists_together.svg"
   inkscape:version="1.2.2 (b0a8486541, 2022-12-01)"
   xmlns:inkscape="http://www.inkscape.org/namespaces/inkscape"
   xmlns:sodipodi="http://sodipodi.sourceforge.net/DTD/sodipodi-0.dtd"
   xmlns="http://www.w3.org/2000/svg"
   xmlns:svg="http://www.w3.org/2000/svg">
  <defs
     id="defs22">
    <clipPath
       clipPathUnits="userSpaceOnUse"
       id="clipPath36">
      <path
         d="M 0,595.28 H 595.281 V 0 H 0 Z"
         id="path34" />
    </clipPath>
  </defs>
  <sodipodi:namedview
     id="namedview20"
     pagecolor="#ffffff"
     bordercolor="#999999"
     borderopacity="1"
     inkscape:showpageshadow="0"
     inkscape:pageopacity="0"
     inkscape:pagecheckerboard="0"
     inkscape:deskcolor="#d1d1d1"
     showgrid="false"
     inkscape:zoom="0.753801"
     inkscape:cx="300.47718"
     inkscape:cy="277.2615"
     inkscape:window-width="1895"
     inkscape:window-height="1408"
     inkscape:window-x="26"
     inkscape:window-y="23"
     inkscape:window-maximized="0"
     inkscape:current-layer="g26">
    <inkscape:page
       x="0"
       y="0"
       id="page24"
       width="492.35852"
       height="198.25386" />
  </sodipodi:namedview>
  <g
     id="g26"
     inkscape:groupmode="layer"
     inkscape:label="Page 1"
     transform="matrix(1.3333333,0,0,-1.3333333,-150.67426,495.98052)">
    <g
       id="g30">
      <g
         id="g32"
         clip-path="url(#clipPath36)">
        <g
           id="g38"
           transform="translate(149.5557,371.9854)">
          <path
             d="M 0,0 V -12.183 C 0,-25.641 -10.909,-36.55 -24.367,-36.55 H -36.55 v -24.367 h 12.183 c 26.915,0 48.734,21.818 48.734,48.733 V 0 Z"
             style="fill:#91dc47;fill-opacity:1;fill-rule:nonzero;stroke:none"
             id="path40" />
        </g>
        <g
           id="g42"
           transform="translate(198.29,311.0688)">
          <path
             d="M 0,0 H 12.184 V 24.366 H 0 c -26.915,0 -48.734,-21.819 -48.734,-48.733 v -12.184 c 0,-26.914 21.819,-48.735 48.734,-48.735 h 12.184 v 24.369 H 0 c -13.458,0 -24.367,10.909 -24.367,24.366 v 12.184 C -24.367,-10.91 -13.457,0 0,0"
             style="fill:#90b4fe;fill-opacity:1;fill-rule:nonzero;stroke:none"
             id="path44" />
        </g>
        <g
           id="g46"
           transform="translate(251.499,296.9263)">
          <path
             d="m 0,0 c -2.482,0 -4.66,0.395 -6.53,1.182 -1.872,0.788 -3.449,1.891 -4.728,3.31 -1.281,1.418 -2.237,3.102 -2.867,5.052 -0.63,1.951 -0.945,4.108 -0.945,6.472 0,2.364 0.345,4.53 1.034,6.501 0.689,1.969 1.664,3.673 2.926,5.112 1.26,1.438 2.807,2.56 4.639,3.369 1.832,0.806 3.871,1.211 6.117,1.211 1.378,0 2.757,-0.118 4.136,-0.355 1.379,-0.236 2.698,-0.611 3.96,-1.123 L 6.501,26.062 c -0.828,0.394 -1.783,0.71 -2.866,0.946 -1.084,0.236 -2.237,0.355 -3.457,0.355 -3.074,0 -5.428,-0.966 -7.063,-2.897 -1.635,-1.93 -2.452,-4.747 -2.452,-8.45 0,-1.655 0.186,-3.172 0.561,-4.551 0.374,-1.379 0.965,-2.561 1.773,-3.546 0.807,-0.985 1.841,-1.743 3.103,-2.275 1.26,-0.531 2.797,-0.798 4.609,-0.798 1.458,0 2.778,0.138 3.96,0.414 1.182,0.275 2.107,0.571 2.777,0.887 L 8.215,1.538 C 7.899,1.339 7.446,1.153 6.855,0.976 6.265,0.798 5.594,0.641 4.846,0.503 4.098,0.365 3.3,0.246 2.453,0.148 1.605,0.051 0.788,0 0,0"
             style="fill:#e8e8e8;fill-opacity:1;fill-rule:nonzero;stroke:none"
             id="path48" />
        </g>
        <g
           id="g50"
           transform="translate(275.9067,297.0449)">
          <path
             d="m 0,0 c -3.389,0.079 -5.792,0.807 -7.21,2.186 -1.418,1.379 -2.127,3.526 -2.127,6.442 v 36.877 l 5.495,0.946 V 9.515 c 0,-0.908 0.079,-1.655 0.237,-2.246 0.157,-0.591 0.414,-1.064 0.769,-1.418 0.354,-0.355 0.827,-0.621 1.418,-0.798 0.59,-0.178 1.319,-0.325 2.187,-0.444 z"
             style="fill:#e8e8e8;fill-opacity:1;fill-rule:nonzero;stroke:none"
             id="path52" />
        </g>
        <g
           id="g54"
           transform="translate(305.2783,313.0015)">
          <path
             d="m 0,0 c 0,3.466 -0.779,6.214 -2.334,8.244 -1.557,2.029 -3.674,3.044 -6.354,3.044 -2.679,0 -4.797,-1.015 -6.352,-3.044 -1.558,-2.03 -2.335,-4.778 -2.335,-8.244 0,-3.467 0.777,-6.216 2.335,-8.244 1.555,-2.03 3.673,-3.044 6.352,-3.044 2.68,0 4.797,1.014 6.354,3.044 C -0.779,-6.216 0,-3.467 0,0 m 5.733,0 c 0,-2.443 -0.355,-4.649 -1.065,-6.619 -0.709,-1.971 -1.704,-3.664 -2.984,-5.083 -1.281,-1.418 -2.808,-2.511 -4.58,-3.279 -1.773,-0.769 -3.704,-1.152 -5.792,-1.152 -2.088,0 -4.019,0.383 -5.791,1.152 -1.773,0.768 -3.301,1.861 -4.581,3.279 -1.28,1.419 -2.274,3.112 -2.984,5.083 -0.709,1.97 -1.063,4.176 -1.063,6.619 0,2.403 0.354,4.6 1.063,6.589 0.71,1.99 1.704,3.694 2.984,5.112 1.28,1.419 2.808,2.512 4.581,3.28 1.772,0.769 3.703,1.153 5.791,1.153 2.088,0 4.019,-0.384 5.792,-1.153 1.772,-0.768 3.299,-1.861 4.58,-3.28 C 2.964,10.283 3.959,8.579 4.668,6.589 5.378,4.6 5.733,2.403 5.733,0"
             style="fill:#e8e8e8;fill-opacity:1;fill-rule:nonzero;stroke:none"
             id="path56" />
        </g>
        <g
           id="g58"
           transform="translate(322.5347,333.9224)">
          <path
             d="m 0,0 c -0.985,0 -1.823,0.325 -2.512,0.975 -0.689,0.65 -1.034,1.526 -1.034,2.63 0,1.103 0.345,1.979 1.034,2.63 0.689,0.65 1.527,0.974 2.512,0.974 0.985,0 1.822,-0.324 2.512,-0.974 C 3.201,5.584 3.546,4.708 3.546,3.605 3.546,2.501 3.201,1.625 2.512,0.975 1.822,0.325 0.985,0 0,0 m -7.742,-47.338 c -0.473,0 -1.083,0.059 -1.832,0.177 -0.748,0.119 -1.379,0.277 -1.891,0.474 l 0.709,4.491 c 0.395,-0.119 0.848,-0.217 1.36,-0.296 0.512,-0.079 0.985,-0.118 1.418,-0.118 1.891,0 3.24,0.582 4.048,1.743 0.807,1.162 1.212,2.867 1.212,5.112 v 30.199 h 5.495 v -30.14 c 0,-3.938 -0.896,-6.864 -2.688,-8.776 -1.794,-1.91 -4.403,-2.866 -7.831,-2.866"
             style="fill:#e8e8e8;fill-opacity:1;fill-rule:nonzero;stroke:none"
             id="path60" />
        </g>
        <g
           id="g62"
           transform="translate(360.2983,298.522)">
          <path
             d="m 0,0 c -1.262,-0.316 -2.926,-0.65 -4.994,-1.004 -2.068,-0.355 -4.462,-0.533 -7.181,-0.533 -2.364,0 -4.353,0.346 -5.969,1.035 -1.615,0.689 -2.916,1.664 -3.9,2.925 -0.985,1.261 -1.694,2.748 -2.127,4.462 -0.434,1.713 -0.651,3.615 -0.651,5.703 v 17.257 h 5.496 V 13.771 c 0,-3.744 0.592,-6.423 1.774,-8.038 1.181,-1.616 3.17,-2.423 5.969,-2.423 0.59,0 1.201,0.019 1.832,0.059 0.629,0.039 1.22,0.089 1.772,0.148 0.552,0.059 1.054,0.118 1.507,0.177 0.453,0.059 0.778,0.127 0.975,0.206 V 29.845 H 0 Z"
             style="fill:#e8e8e8;fill-opacity:1;fill-rule:nonzero;stroke:none"
             id="path64" />
        </g>
        <g
           id="g66"
           transform="translate(382.1641,329.0171)">
          <path
             d="M 0,0 C 0.472,0 1.014,-0.03 1.625,-0.089 2.235,-0.147 2.836,-0.227 3.428,-0.325 4.018,-0.424 4.56,-0.523 5.053,-0.621 5.545,-0.719 5.91,-0.808 6.146,-0.887 L 5.2,-5.673 c -0.434,0.156 -1.152,0.343 -2.157,0.561 -1.004,0.216 -2.295,0.325 -3.871,0.325 -1.025,0 -2.038,-0.109 -3.043,-0.325 -1.005,-0.218 -1.665,-0.365 -1.98,-0.444 v -25.825 h -5.496 V -1.95 c 1.3,0.472 2.915,0.916 4.846,1.329 C -4.571,-0.207 -2.404,0 0,0"
             style="fill:#e8e8e8;fill-opacity:1;fill-rule:nonzero;stroke:none"
             id="path68" />
        </g>
        <path
           d="m 400.188,297.636 h -5.496 v 30.73 h 5.496 z m -2.778,36.286 c -0.985,0 -1.823,0.325 -2.512,0.975 -0.69,0.651 -1.034,1.527 -1.034,2.63 0,1.103 0.344,1.98 1.034,2.63 0.689,0.65 1.527,0.975 2.512,0.975 0.985,0 1.822,-0.325 2.512,-0.975 0.689,-0.65 1.035,-1.527 1.035,-2.63 0,-1.103 -0.346,-1.979 -1.035,-2.63 -0.69,-0.65 -1.527,-0.975 -2.512,-0.975"
           style="fill:#e8e8e8;fill-opacity:1;fill-rule:nonzero;stroke:none"
           id="path70" />
        <g
           id="g72"
           transform="translate(417.8579,301.5947)">
          <path
             d="m 0,0 c 2.246,0 3.91,0.296 4.994,0.887 1.083,0.592 1.625,1.536 1.625,2.837 0,1.339 -0.533,2.402 -1.596,3.191 -1.064,0.788 -2.817,1.674 -5.259,2.66 -1.182,0.472 -2.316,0.954 -3.399,1.448 -1.084,0.492 -2.019,1.073 -2.807,1.743 -0.788,0.669 -1.418,1.478 -1.891,2.422 -0.473,0.946 -0.709,2.108 -0.709,3.487 0,2.719 1.004,4.876 3.014,6.471 2.009,1.597 4.747,2.395 8.215,2.395 0.865,0 1.733,-0.051 2.6,-0.149 0.866,-0.098 1.674,-0.217 2.422,-0.354 0.749,-0.139 1.41,-0.286 1.981,-0.443 0.57,-0.158 1.014,-0.295 1.329,-0.414 L 9.515,21.453 c -0.591,0.315 -1.517,0.64 -2.778,0.976 -1.261,0.334 -2.778,0.502 -4.55,0.502 -1.537,0 -2.877,-0.306 -4.019,-0.916 -1.143,-0.611 -1.714,-1.566 -1.714,-2.867 0,-0.67 0.128,-1.261 0.384,-1.772 0.256,-0.513 0.65,-0.976 1.182,-1.389 0.532,-0.414 1.191,-0.799 1.98,-1.153 0.788,-0.355 1.733,-0.729 2.836,-1.123 1.458,-0.552 2.757,-1.093 3.901,-1.625 1.142,-0.532 2.118,-1.152 2.926,-1.861 0.807,-0.709 1.426,-1.567 1.861,-2.571 0.433,-1.005 0.65,-2.237 0.65,-3.694 0,-2.836 -1.054,-4.984 -3.161,-6.441 C 6.904,-3.94 3.9,-4.668 0,-4.668 c -2.718,0 -4.846,0.227 -6.383,0.679 -1.536,0.452 -2.581,0.798 -3.132,1.035 L -8.51,1.774 C -7.88,1.537 -6.876,1.182 -5.496,0.709 -4.118,0.237 -2.286,0 0,0"
             style="fill:#e8e8e8;fill-opacity:1;fill-rule:nonzero;stroke:none"
             id="path74" />
        </g>
        <g
           id="g76"
           transform="translate(443.2705,328.3667)">
          <path
             d="M 0,0 H 11.643 V -4.609 H 0 v -14.184 c 0,-1.537 0.117,-2.807 0.354,-3.812 0.237,-1.004 0.591,-1.793 1.064,-2.364 0.473,-0.572 1.063,-0.975 1.772,-1.211 0.71,-0.236 1.538,-0.355 2.483,-0.355 1.655,0 2.985,0.186 3.989,0.562 1.004,0.374 1.704,0.64 2.098,0.797 l 1.063,-4.55 c -0.552,-0.277 -1.516,-0.621 -2.895,-1.035 -1.379,-0.413 -2.955,-0.62 -4.728,-0.62 -2.089,0 -3.811,0.266 -5.172,0.798 -1.359,0.531 -2.452,1.33 -3.279,2.393 -0.827,1.064 -1.409,2.374 -1.743,3.93 -0.335,1.556 -0.503,3.359 -0.503,5.408 V 8.57 L 0,9.515 Z"
             style="fill:#e8e8e8;fill-opacity:1;fill-rule:nonzero;stroke:none"
             id="path78" />
        </g>
        <g
           id="g80"
           transform="translate(470.1006,301.5947)">
          <path
             d="m 0,0 c 2.245,0 3.909,0.296 4.994,0.887 1.082,0.592 1.625,1.536 1.625,2.837 0,1.339 -0.533,2.402 -1.597,3.191 -1.063,0.788 -2.816,1.674 -5.259,2.66 -1.181,0.472 -2.315,0.954 -3.398,1.448 -1.084,0.492 -2.019,1.073 -2.807,1.743 -0.788,0.669 -1.418,1.478 -1.892,2.422 -0.472,0.946 -0.709,2.108 -0.709,3.487 0,2.719 1.005,4.876 3.015,6.471 2.009,1.597 4.747,2.395 8.215,2.395 0.865,0 1.733,-0.051 2.6,-0.149 C 5.653,27.294 6.461,27.175 7.21,27.038 7.958,26.899 8.618,26.752 9.189,26.595 9.761,26.437 10.203,26.3 10.52,26.181 L 9.515,21.453 c -0.591,0.315 -1.518,0.64 -2.778,0.976 -1.261,0.334 -2.778,0.502 -4.55,0.502 -1.538,0 -2.877,-0.306 -4.019,-0.916 -1.144,-0.611 -1.714,-1.566 -1.714,-2.867 0,-0.67 0.127,-1.261 0.384,-1.772 0.255,-0.513 0.65,-0.976 1.183,-1.389 0.531,-0.414 1.19,-0.799 1.979,-1.153 0.788,-0.355 1.732,-0.729 2.837,-1.123 1.456,-0.552 2.757,-1.093 3.9,-1.625 C 7.88,11.554 8.854,10.934 9.661,10.225 10.47,9.516 11.09,8.658 11.523,7.654 11.957,6.649 12.174,5.417 12.174,3.96 12.174,1.124 11.119,-1.024 9.012,-2.481 6.903,-3.94 3.9,-4.668 0,-4.668 c -2.719,0 -4.847,0.227 -6.384,0.679 -1.536,0.452 -2.58,0.798 -3.132,1.035 l 1.005,4.728 C -7.881,1.537 -6.876,1.182 -5.497,0.709 -4.118,0.237 -2.285,0 0,0"
             style="fill:#e8e8e8;fill-opacity:1;fill-rule:nonzero;stroke:none"
             id="path82" />
        </g>
        <g
           id="g84"
           transform="translate(243.2847,265.1367)">
          <path
             d="M 0,0 H 11.642 V -4.61 H 0 v -14.184 c 0,-1.536 0.118,-2.807 0.354,-3.811 0.237,-1.005 0.591,-1.794 1.064,-2.365 0.473,-0.572 1.064,-0.975 1.773,-1.211 0.709,-0.236 1.537,-0.355 2.482,-0.355 1.655,0 2.985,0.186 3.99,0.562 1.004,0.373 1.703,0.639 2.097,0.797 l 1.064,-4.55 c -0.552,-0.277 -1.517,-0.621 -2.896,-1.035 -1.379,-0.413 -2.954,-0.62 -4.727,-0.62 -2.089,0 -3.812,0.266 -5.172,0.798 -1.359,0.531 -2.452,1.33 -3.279,2.394 -0.828,1.063 -1.41,2.373 -1.744,3.929 -0.335,1.557 -0.502,3.359 -0.502,5.408 V 8.569 L 0,9.515 Z"
             style="fill:#e8e8e8;fill-opacity:1;fill-rule:nonzero;stroke:none"
             id="path86" />
        </g>
        <g
           id="g88"
           transform="translate(283.0576,249.7705)">
          <path
             d="m 0,0 c 0,3.466 -0.779,6.215 -2.334,8.244 -1.557,2.029 -3.674,3.044 -6.354,3.044 -2.679,0 -4.796,-1.015 -6.352,-3.044 -1.558,-2.029 -2.335,-4.778 -2.335,-8.244 0,-3.467 0.777,-6.216 2.335,-8.244 1.556,-2.03 3.673,-3.044 6.352,-3.044 2.68,0 4.797,1.014 6.354,3.044 C -0.779,-6.216 0,-3.467 0,0 m 5.733,0 c 0,-2.443 -0.355,-4.65 -1.064,-6.619 -0.71,-1.971 -1.705,-3.663 -2.985,-5.082 -1.281,-1.418 -2.807,-2.512 -4.58,-3.28 -1.772,-0.769 -3.703,-1.152 -5.792,-1.152 -2.088,0 -4.018,0.383 -5.791,1.152 -1.773,0.768 -3.3,1.862 -4.58,3.28 -1.281,1.419 -2.275,3.111 -2.985,5.082 -0.709,1.969 -1.063,4.176 -1.063,6.619 0,2.402 0.354,4.6 1.063,6.589 0.71,1.99 1.704,3.694 2.985,5.112 1.28,1.42 2.807,2.512 4.58,3.28 1.773,0.769 3.703,1.153 5.791,1.153 2.089,0 4.02,-0.384 5.792,-1.153 1.773,-0.768 3.299,-1.86 4.58,-3.28 C 2.964,10.283 3.959,8.579 4.669,6.589 5.378,4.6 5.733,2.402 5.733,0"
             style="fill:#e8e8e8;fill-opacity:1;fill-rule:nonzero;stroke:none"
             id="path90" />
        </g>
        <g
           id="g92"
           transform="translate(316.3296,260.29)">
          <path
             d="m 0,0 c -0.552,0.157 -1.291,0.305 -2.216,0.443 -0.926,0.138 -2.178,0.206 -3.753,0.206 -2.954,0 -5.23,-0.965 -6.826,-2.894 -1.596,-1.932 -2.393,-4.492 -2.393,-7.684 0,-1.772 0.226,-3.289 0.68,-4.55 0.452,-1.261 1.064,-2.305 1.832,-3.132 0.768,-0.828 1.654,-1.439 2.659,-1.832 1.005,-0.394 2.038,-0.592 3.102,-0.592 1.458,0 2.798,0.207 4.019,0.621 1.221,0.414 2.187,0.896 2.896,1.448 z m 0.06,-22.812 c -0.473,-0.316 -1.389,-0.719 -2.749,-1.211 -1.359,-0.494 -2.945,-0.739 -4.757,-0.739 -1.853,0 -3.596,0.295 -5.23,0.887 -1.636,0.591 -3.064,1.507 -4.285,2.748 -1.222,1.241 -2.186,2.787 -2.895,4.639 -0.71,1.85 -1.064,4.056 -1.064,6.618 0,2.246 0.334,4.305 1.004,6.177 0.669,1.87 1.645,3.486 2.925,4.845 1.28,1.36 2.847,2.423 4.699,3.192 1.851,0.767 3.939,1.152 6.264,1.152 2.561,0 4.797,-0.187 6.708,-0.561 C 2.59,4.56 4.196,4.216 5.497,3.9 v -27.421 c 0,-4.727 -1.222,-8.156 -3.665,-10.283 -2.443,-2.128 -6.146,-3.191 -11.11,-3.191 -1.931,0 -3.753,0.157 -5.467,0.473 -1.714,0.315 -3.201,0.689 -4.462,1.123 l 1.005,4.787 c 1.102,-0.434 2.452,-0.819 4.048,-1.154 1.596,-0.334 3.259,-0.502 4.994,-0.502 3.27,0 5.623,0.65 7.063,1.951 1.437,1.299 2.157,3.368 2.157,6.205 z"
             style="fill:#e8e8e8;fill-opacity:1;fill-rule:nonzero;stroke:none"
             id="path94" />
        </g>
        <g
           id="g96"
           transform="translate(351.2563,252.7266)">
          <path
             d="M 0,0 C 0.039,2.481 -0.582,4.52 -1.862,6.115 -3.143,7.711 -4.906,8.51 -7.151,8.51 -8.413,8.51 -9.525,8.263 -10.49,7.771 -11.456,7.277 -12.273,6.638 -12.943,5.85 -13.613,5.062 -14.135,4.155 -14.509,3.131 -14.884,2.106 -15.129,1.062 -15.248,0 Z m -21.098,-3.016 c 0,2.719 0.393,5.093 1.181,7.122 0.788,2.029 1.833,3.713 3.133,5.053 1.3,1.339 2.797,2.344 4.492,3.014 1.693,0.67 3.427,1.005 5.2,1.005 4.137,0 7.308,-1.29 9.515,-3.871 2.206,-2.581 3.309,-6.511 3.309,-11.79 v -0.916 c 0,-0.375 -0.02,-0.719 -0.059,-1.035 h -21.039 c 0.237,-3.191 1.162,-5.614 2.778,-7.268 1.615,-1.655 4.137,-2.483 7.565,-2.483 1.929,0 3.555,0.167 4.875,0.502 1.32,0.335 2.314,0.66 2.984,0.976 l 0.769,-4.609 c -0.67,-0.355 -1.842,-0.731 -3.517,-1.123 -1.674,-0.395 -3.575,-0.592 -5.702,-0.592 -2.68,0 -4.994,0.404 -6.945,1.212 -1.95,0.807 -3.556,1.921 -4.816,3.34 -1.262,1.417 -2.197,3.101 -2.808,5.051 -0.61,1.95 -0.915,4.088 -0.915,6.412"
             style="fill:#e8e8e8;fill-opacity:1;fill-rule:nonzero;stroke:none"
             id="path98" />
        </g>
        <g
           id="g100"
           transform="translate(370.6401,265.1367)">
          <path
             d="M 0,0 H 11.642 V -4.61 H 0 v -14.184 c 0,-1.536 0.118,-2.807 0.354,-3.811 0.237,-1.005 0.591,-1.794 1.064,-2.365 0.473,-0.572 1.064,-0.975 1.773,-1.211 0.709,-0.236 1.537,-0.355 2.482,-0.355 1.655,0 2.985,0.186 3.989,0.562 1.005,0.373 1.704,0.639 2.098,0.797 l 1.064,-4.55 c -0.552,-0.277 -1.517,-0.621 -2.896,-1.035 -1.379,-0.413 -2.954,-0.62 -4.728,-0.62 -2.089,0 -3.811,0.266 -5.171,0.798 -1.359,0.531 -2.452,1.33 -3.28,2.394 -0.827,1.063 -1.409,2.373 -1.743,3.929 -0.335,1.557 -0.503,3.359 -0.503,5.408 V 8.569 L 0,9.515 Z"
             style="fill:#e8e8e8;fill-opacity:1;fill-rule:nonzero;stroke:none"
             id="path102" />
        </g>
        <g
           id="g104"
           transform="translate(389.8462,234.4043)">
          <path
             d="M 0,0 V 44.915 L 5.497,45.86 V 30.141 c 1.024,0.393 2.117,0.7 3.279,0.916 1.162,0.216 2.314,0.325 3.457,0.325 2.443,0 4.472,-0.346 6.088,-1.034 1.615,-0.691 2.905,-1.656 3.871,-2.897 0.965,-1.24 1.644,-2.727 2.039,-4.462 0.394,-1.733 0.591,-3.643 0.591,-5.732 V 0 h -5.496 v 16.075 c 0,1.891 -0.129,3.507 -0.385,4.847 -0.256,1.339 -0.679,2.422 -1.27,3.25 -0.591,0.827 -1.38,1.428 -2.364,1.803 -0.986,0.374 -2.207,0.56 -3.664,0.56 -0.592,0 -1.202,-0.039 -1.832,-0.117 C 9.18,26.338 8.579,26.25 8.008,26.152 7.437,26.054 6.924,25.945 6.472,25.826 6.018,25.709 5.693,25.609 5.497,25.531 V 0 Z"
             style="fill:#e8e8e8;fill-opacity:1;fill-rule:nonzero;stroke:none"
             id="path106" />
        </g>
        <g
           id="g108"
           transform="translate(443.5664,252.7266)">
          <path
             d="M 0,0 C 0.039,2.481 -0.581,4.52 -1.861,6.115 -3.143,7.711 -4.904,8.51 -7.15,8.51 -8.412,8.51 -9.524,8.263 -10.49,7.771 -11.456,7.277 -12.272,6.638 -12.941,5.85 -13.612,5.062 -14.134,4.155 -14.509,3.131 -14.883,2.106 -15.129,1.062 -15.247,0 Z m -21.098,-3.016 c 0,2.719 0.394,5.093 1.182,7.122 0.788,2.029 1.832,3.713 3.133,5.053 1.3,1.339 2.797,2.344 4.491,3.014 1.693,0.67 3.428,1.005 5.2,1.005 4.138,0 7.308,-1.29 9.515,-3.871 C 4.63,6.726 5.732,2.796 5.732,-2.483 v -0.916 c 0,-0.375 -0.019,-0.719 -0.058,-1.035 h -21.039 c 0.236,-3.191 1.162,-5.614 2.777,-7.268 1.615,-1.655 4.137,-2.483 7.566,-2.483 1.928,0 3.554,0.167 4.875,0.502 1.319,0.335 2.314,0.66 2.984,0.976 l 0.768,-4.609 c -0.669,-0.355 -1.842,-0.731 -3.516,-1.123 -1.675,-0.395 -3.575,-0.592 -5.702,-0.592 -2.681,0 -4.995,0.404 -6.946,1.212 -1.95,0.807 -3.555,1.921 -4.816,3.34 -1.261,1.417 -2.196,3.101 -2.807,5.051 -0.611,1.95 -0.916,4.088 -0.916,6.412"
             style="fill:#e8e8e8;fill-opacity:1;fill-rule:nonzero;stroke:none"
             id="path110" />
        </g>
        <g
           id="g112"
           transform="translate(469.1562,265.7861)">
          <path
             d="M 0,0 C 0.473,0 1.014,-0.03 1.625,-0.088 2.235,-0.147 2.836,-0.227 3.428,-0.325 4.018,-0.424 4.56,-0.522 5.053,-0.62 5.545,-0.719 5.909,-0.808 6.146,-0.887 L 5.2,-5.673 c -0.433,0.157 -1.152,0.345 -2.157,0.562 -1.004,0.215 -2.296,0.324 -3.87,0.324 -1.026,0 -2.04,-0.109 -3.044,-0.324 -1.005,-0.217 -1.666,-0.367 -1.981,-0.445 v -25.826 h -5.495 V -1.95 c 1.299,0.473 2.915,0.916 4.845,1.33 C -4.571,-0.207 -2.404,0 0,0"
             style="fill:#e8e8e8;fill-opacity:1;fill-rule:nonzero;stroke:none"
             id="path114" />
        </g>
      </g>
    </g>
  </g>
</svg>
