<svg width="532" height="146" viewBox="0 0 532 146" fill="none" xmlns="http://www.w3.org/2000/svg">
<g clip-path="url(#clip0_1_95)">
<path d="M182.737 46.5681L178.621 51.9939C176.949 50.6694 175.681 50.0823 173.586 50.0432C170.868 49.9917 168.656 52.2288 168.656 54.952V63.2081H179.632V69.7194H168.656V93.087H161.145V55.881C161.147 48.9659 166.752 43.2991 173.652 43.3856C177.817 43.4391 180.621 44.5886 182.737 46.5661V46.5681Z" fill="white"/>
<path d="M212.056 72.4674V81.3023C212.056 86.5736 209.934 89.3524 206.361 91.4391C203.914 92.8687 200.9 93.5917 197.253 93.5917C189.889 93.5917 182.884 89.9745 182.884 82.8843C182.884 77.096 187.506 73.0462 196.17 73.0462H204.546V72.4674C204.546 68.1992 201.441 66.1002 197.035 66.1002C193.425 66.1002 190.03 67.4021 187.288 68.9223L184.111 63.0618C187.938 60.9628 192.2 59.5888 197.037 59.5888C205.557 59.5888 212.056 63.9291 212.056 72.4674ZM204.546 79.2692H196.17C192.197 79.2692 190.61 80.4269 190.61 82.8143C190.61 85.7805 193.571 87.0824 197.325 87.0824C200.935 87.0824 204.546 85.9247 204.546 81.7287V79.2692Z" fill="white"/>
<path d="M241.37 83.2489L246.929 87.8796C243.825 91.2805 240.068 93.5958 233.859 93.5958C224.69 93.5958 216.312 86.6498 216.312 76.3771C216.312 65.886 224.544 59.593 233.859 59.593C239.347 59.593 243.681 61.8362 246.713 65.2351L241.298 69.7936C239.421 67.6225 236.82 66.2485 233.859 66.2485C228.66 66.2485 224.112 70.082 224.112 76.3771C224.112 82.4538 228.806 86.9403 233.859 86.9403C237.108 86.9403 239.491 85.4201 241.37 83.251V83.2489Z" fill="white"/>
<path d="M274.368 79.2691V81.5124C274.368 89.3256 269.818 93.5937 262.382 93.5937C254.871 93.5937 250.396 89.3256 250.396 81.5124V52.8632H257.906V63.2081H271.841V69.7194H257.906V81.5124C257.906 85.2017 258.99 86.9382 262.384 86.9382C265.706 86.9382 266.862 85.2017 266.862 81.5124V79.2691H274.372H274.368Z" fill="white"/>
<path d="M314.947 76.5913C314.947 86.7199 306.571 93.5938 296.462 93.5938C286.352 93.5938 277.977 86.7199 277.977 76.5913C277.977 66.3906 286.352 59.5888 296.462 59.5888C306.571 59.5888 314.947 66.3906 314.947 76.5913ZM307.149 76.6407C307.175 70.3127 301.994 65.818 295.561 66.2774C290.135 66.6646 285.797 71.0914 285.775 76.5419C285.748 82.8699 290.929 87.3646 297.362 86.9053C302.788 86.518 307.126 82.0913 307.149 76.6407Z" fill="white"/>
<path d="M335.742 68.1272C334.443 66.9695 333.359 66.5349 331.626 66.5349C328.809 66.5349 327.294 67.7646 327.294 71.3097V93.0871H319.784V69.8513C319.784 67.3897 320.659 64.9837 322.343 63.1916C324.436 60.9608 327.456 59.5909 331.626 59.5909C335.742 59.5909 338.197 61.2553 339.714 62.7014L335.742 68.1272Z" fill="white"/>
<path d="M386.448 73.6251V93.0871H378.938V73.7281C378.938 69.6062 375.611 66.1744 371.497 66.2465C367.373 66.3186 363.845 69.4084 363.845 73.8413V93.085H356.335V43.8903H363.845V63.0619C365.288 61.2533 369.188 59.5889 372.221 59.5889C380.381 59.5889 386.446 65.0146 386.446 73.6251H386.448Z" fill="white"/>
<path d="M428.183 76.5913C428.183 86.7199 419.807 93.5938 409.698 93.5938C399.589 93.5938 391.213 86.7199 391.213 76.5913C391.213 66.3906 399.589 59.5888 409.698 59.5888C419.807 59.5888 428.183 66.3906 428.183 76.5913ZM420.385 76.6407C420.411 70.3127 415.232 65.818 408.797 66.2774C403.372 66.6646 399.033 71.0914 399.011 76.5419C398.984 82.8699 404.165 87.3646 410.598 86.9053C416.024 86.518 420.362 82.0913 420.385 76.6407Z" fill="white"/>
<path d="M463.057 60.0976V79.5596C463.057 88.17 456.92 93.5958 448.038 93.5958C439.084 93.5958 432.947 88.17 432.947 79.5596V60.0976H440.458V79.3413C440.458 83.8731 443.552 87 448.178 86.9361C452.283 86.8805 455.548 83.4549 455.548 79.3413V60.0976H463.059H463.057Z" fill="white"/>
<path d="M494.322 82.8864C494.322 89.6882 489.34 93.087 481.973 93.087H468.326V86.7199H481.758C485.224 86.7199 486.667 85.418 486.667 83.1027C486.667 80.7873 485.946 79.4134 482.985 79.4134H479.737C472.66 79.4134 468.038 76.2308 468.038 69.7915C468.038 63.136 472.804 60.0976 480.096 60.0976H492.878V66.4648H480.602C477.136 66.4648 475.693 67.4062 475.693 69.7936C475.693 72.1089 476.92 72.9041 480.096 72.9041H483.419C490.783 72.9041 494.322 76.305 494.322 82.8884V82.8864Z" fill="white"/>
<path d="M531.581 79.2692H505.875C507.031 84.4066 511.363 87.0824 515.695 87.0824C519.305 87.0824 521.76 85.7806 523.927 84.2604L527.753 89.6861C524.43 92.2899 520.388 93.5938 515.695 93.5938C505.947 93.5938 497.931 86.6478 497.931 76.375C497.931 65.8839 505.873 59.5909 515.045 59.5909C525.804 59.5909 531.869 67.1878 531.869 76.1587C531.869 77.1722 531.797 78.2557 531.581 79.2692ZM524.217 73.0462C522.989 68.5597 519.667 66.1002 515.119 66.1002C510.281 66.1002 506.887 68.7039 505.875 73.0462H524.217Z" fill="white"/>
</g>
<rect width="34.7863" height="100.625" rx="17.3932" transform="matrix(0.689527 0.72426 -0.689527 0.72426 69.3837 7.62939e-05)" stroke="#1EFF9A" stroke-width="7.00579"/>
<rect width="34.7863" height="100.625" rx="17.3932" transform="matrix(0.689527 0.72426 -0.689527 0.72426 114.963 47.8731)" stroke="#1EFF9A" stroke-width="7.00579"/>
<rect width="34.7863" height="100.625" rx="17.3932" transform="matrix(0.689527 -0.72426 0.689527 0.72426 45.3981 25.1944)" stroke="#1EFF9A" stroke-width="7.00579"/>
<rect width="34.7863" height="100.625" rx="17.3932" transform="matrix(0.689527 -0.72426 0.689527 0.72426 0.000488281 72.8788)" stroke="#1EFF9A" stroke-width="7.00579"/>
<defs>
<clipPath id="clip0_1_95">
<rect width="370.723" height="50.2082" fill="white" transform="translate(161.147 43.3856)"/>
</clipPath>
</defs>
</svg>
