<?xml version="1.0" encoding="UTF-8" standalone="no"?>
<svg
   width="1350"
   height="285"
   viewBox="0 0 1350 285"
   fill="none"
   version="1.1"
   id="svg403"
   sodipodi:docname="freshcode.svg"
   inkscape:version="1.2.2 (b0a8486541, 2022-12-01)"
   xmlns:inkscape="http://www.inkscape.org/namespaces/inkscape"
   xmlns:sodipodi="http://sodipodi.sourceforge.net/DTD/sodipodi-0.dtd"
   xmlns="http://www.w3.org/2000/svg"
   xmlns:svg="http://www.w3.org/2000/svg">
  <defs
     id="defs407" />
  <sodipodi:namedview
     id="namedview405"
     pagecolor="#ffffff"
     bordercolor="#999999"
     borderopacity="1"
     inkscape:showpageshadow="0"
     inkscape:pageopacity="0"
     inkscape:pagecheckerboard="0"
     inkscape:deskcolor="#d1d1d1"
     showgrid="false"
     inkscape:zoom="0.82807018"
     inkscape:cx="675.66737"
     inkscape:cy="142.5"
     inkscape:window-width="1737"
     inkscape:window-height="1408"
     inkscape:window-x="26"
     inkscape:window-y="23"
     inkscape:window-maximized="0"
     inkscape:current-layer="svg403" />
  <path
     d="M284.28 142.126L141.91 0L102.803 39.048L206.052 142.141L102.803 245.231L141.91 284.279L284.28 142.154L284.267 142.141L284.28 142.126Z"
     fill="#2B74FC"
     id="path381" />
  <path
     d="M78.0332 142.104L132.09 88.2035L93.0808 49.3086L0 142.089L0.0151449 142.104L0 142.117L93.1651 234.982L132.174 196.087L78.0332 142.104Z"
     fill="#1AE9BE"
     id="path383" />
  <path
     d="M1195.32 71.502V117.771C1190.2 107.341 1175.52 99.7962 1160.18 99.7962C1129.49 99.7962 1108.15 123.763 1108.15 157.716C1108.15 191.447 1129.27 215.192 1159.74 215.192C1174.64 215.192 1190.2 207.869 1196.65 196.995V212.751H1222.89V71.502H1195.32ZM1165.07 191.225C1146.62 191.225 1134.83 177.467 1134.83 157.494C1134.83 138.409 1145.28 123.763 1164.85 123.763C1183.97 123.763 1195.54 137.3 1195.54 157.494C1195.54 177.467 1183.53 191.225 1165.07 191.225V191.225Z"
     fill="#000003"
     id="path385"
     style="fill:#ffffff" />
  <path
     d="M821.307 99.871C805.533 99.6485 794.647 106.769 785.982 118.339V71.502H759.767V213.125H785.982V157.722C785.982 137.474 796.424 123.679 815.086 123.679C832.193 123.679 835.081 135.916 835.081 149.934V213.125H861.074V145.262C861.074 116.559 847.522 99.871 821.307 99.871Z"
     fill="#000003"
     id="path387"
     style="fill:#ffffff" />
  <path
     d="M511.887 99.418C499.347 99.418 489.271 106.567 484.344 117.514V101.429H457.921V213.13H484.344V151.875C484.344 136.014 491.98 122.65 507.371 122.65C511.401 122.65 514.574 124.437 518.157 126.671L533.384 106.341C526.89 101.205 519.277 99.418 511.887 99.418Z"
     fill="#000003"
     id="path389"
     style="fill:#ffffff" />
  <path
     d="M714.461 148.401C703.12 143.503 686.441 141.054 686.441 132.371C686.441 126.804 691.778 122.129 700.674 122.129C708.457 122.129 713.127 124.578 722.022 131.925L738.923 115.226C732.029 108.324 720.021 99.418 700.674 99.418C681.104 99.418 660.868 110.551 660.868 132.371C660.868 153.522 677.991 159.979 693.557 165.768C706.233 170.221 718.241 171.78 718.241 181.577C718.241 188.479 711.348 192.894 701.785 192.894C691.556 192.894 681.326 190.705 668.206 176.233L650.193 193.823C664.87 208.518 681.549 215.197 701.785 215.197C724.913 215.197 744.26 200.279 744.26 182.69C744.482 167.327 735.809 157.53 714.461 148.401Z"
     fill="#000003"
     id="path391"
     style="fill:#ffffff" />
  <path
     d="M446.55 97.7572V71.502H354.547V213.125H383.027V155.868H435.983V130.688H383.027V97.7572H446.55Z"
     fill="#000003"
     id="path393"
     style="fill:#ffffff" />
  <path
     d="M932.511 191.596C914.265 191.596 902.027 175.788 902.027 156.64C902.027 138.827 913.598 123.019 932.511 123.019C942.747 123.019 950.534 126.804 956.987 135.042L974.788 119.234C966.333 108.324 951.87 99.418 932.511 99.418C898.022 99.418 875.548 125.468 875.548 157.976C875.548 189.592 897.577 215.197 933.401 215.197C951.647 215.197 966.333 206.514 974.788 195.604L956.765 179.573C950.312 188.034 942.747 191.596 932.511 191.596Z"
     fill="#000003"
     id="path395"
     style="fill:#ffffff" />
  <path
     d="M1038.58 99.418C1005.13 99.418 980.989 123.019 980.989 157.085C980.989 191.151 1004.69 215.197 1038.36 215.197C1071.81 215.197 1095.73 190.928 1095.73 157.085C1095.73 123.242 1072.03 99.418 1038.58 99.418ZM1038.36 191.596C1020.2 191.596 1007.35 177.346 1007.35 157.085C1007.13 137.269 1019.98 123.019 1038.58 123.019C1056.53 123.019 1069.37 137.269 1069.37 157.085C1069.37 177.346 1056.53 191.596 1038.36 191.596V191.596Z"
     fill="#000003"
     id="path397"
     style="fill:#ffffff" />
  <path
     d="M1349 157.976C1349 126.504 1329.57 99.418 1294.79 99.418C1262.68 99.418 1239.43 123.464 1239.43 157.53C1239.43 191.373 1261.8 215.197 1295.24 215.197C1316.06 215.197 1332.89 207.182 1345.07 194.045L1327.35 178.46C1319.16 187.811 1309.19 191.596 1296.79 191.596C1281.06 191.596 1266.39 181.479 1265.34 167.327H1348.42C1349.09 163.319 1349 161.538 1349 157.976ZM1265.41 145.507C1267.18 133.929 1277.96 123.019 1295.46 123.019C1312.07 123.019 1321.24 133.929 1322.57 145.507H1265.41Z"
     fill="#000003"
     id="path399"
     style="fill:#ffffff" />
  <path
     d="M640.884 157.976C640.884 126.504 621.45 99.418 586.679 99.418C554.566 99.418 531.312 123.464 531.312 157.53C531.312 191.373 553.68 215.197 587.122 215.197C607.94 215.197 624.772 207.182 636.953 194.045L619.235 178.46C611.041 187.811 601.075 191.596 588.672 191.596C572.948 191.596 558.271 181.479 557.224 167.327H640.313C640.977 163.319 640.884 161.538 640.884 157.976ZM557.29 145.507C559.062 133.929 569.847 123.019 587.344 123.019C603.954 123.019 613.127 133.929 614.456 145.507H557.29Z"
     fill="#000003"
     id="path401"
     style="fill:#ffffff" />
</svg>
