<?xml version="1.0" encoding="UTF-8" standalone="no"?>
<svg
   width="240.03799"
   height="67.060097"
   viewBox="0 0 240.03799 67.060097"
   fill="none"
   version="1.1"
   id="svg404"
   sodipodi:docname="juxt.svg"
   inkscape:version="1.2.2 (b0a8486541, 2022-12-01)"
   xmlns:inkscape="http://www.inkscape.org/namespaces/inkscape"
   xmlns:sodipodi="http://sodipodi.sourceforge.net/DTD/sodipodi-0.dtd"
   xmlns="http://www.w3.org/2000/svg"
   xmlns:svg="http://www.w3.org/2000/svg">
  <defs
     id="defs408" />
  <sodipodi:namedview
     id="namedview406"
     pagecolor="#ffffff"
     bordercolor="#999999"
     borderopacity="1"
     inkscape:showpageshadow="0"
     inkscape:pageopacity="0"
     inkscape:pagecheckerboard="0"
     inkscape:deskcolor="#d1d1d1"
     showgrid="false"
     inkscape:zoom="2.3672566"
     inkscape:cx="343.64673"
     inkscape:cy="30.837383"
     inkscape:window-width="1737"
     inkscape:window-height="1408"
     inkscape:window-x="26"
     inkscape:window-y="23"
     inkscape:window-maximized="0"
     inkscape:current-layer="svg404" />
  <path
     d="m 16.3719,55.4294 c 6.9678,0.0625 11.2393,-1.5728 12.8115,-4.9046 1.5722,-3.3311 2.3586,-7.9883 2.3586,-13.9728 V 0 h 14.5228 v 39.5127 c 0,0.7403 -0.0161,1.4342 -0.0464,2.0824 -0.0315,0.6476 -0.0457,1.3118 -0.0457,1.9897 -0.1849,2.9001 -0.7098,5.7371 -1.5722,8.5128 -0.8644,2.7764 -2.282,5.2751 -4.2555,7.4955 -2.7747,3.1462 -5.9977,5.0753 -9.6657,5.7835 -3.67,0.71 -7.4469,1.0644 -11.3314,1.0644 -0.1855,0 -0.3561,0 -0.5088,0 -0.1546,0 -0.2937,0 -0.4161,0 H 0 V 55.4294 Z"
     fill="#f2f2f2"
     id="path392" />
  <path
     d="m 72.5927,39.9704 c 0,5.5527 0.975,9.7009 2.9275,12.4458 1.9512,2.7454 5.9148,4.1179 11.8927,4.1179 5.976,0 9.9254,-1.3725 11.8463,-4.1179 1.9208,-2.7455 2.8818,-6.864 2.8818,-12.3549 V 0.6185 h 13.814 v 39.7174 c 0,0.7935 0,1.587 0,2.3793 0,0.7935 -0.031,1.5555 -0.093,2.2878 -0.061,2.3193 -0.35,4.5916 -0.868,6.8176 -0.519,2.2278 -1.479,4.317 -2.882,6.269 -1.952,2.6854 -4.468,4.6677 -7.547,5.9486 -3.081,1.2815 -6.2665,2.1053 -9.56,2.4708 -1.281,0.1831 -2.5614,0.3043 -3.8424,0.3662 -1.2804,0.06 -2.5311,0.0915 -3.7503,0.0915 -1.1593,0 -2.3649,-0.0315 -3.6137,-0.0915 -1.2508,-0.0619 -2.5157,-0.1831 -3.7967,-0.3662 -3.3547,-0.3043 -6.5863,-1.0978 -9.6973,-2.3793 -3.1104,-1.2815 -5.6719,-3.2947 -7.6843,-6.0401 -1.404,-1.952 -2.3481,-4.0406 -2.8359,-6.269 -0.489,-2.2266 -0.7629,-4.4983 -0.8235,-6.8176 -0.0612,-0.7317 -0.0915,-1.4943 -0.0915,-2.2878 0,-0.7923 0,-1.5561 0,-2.2878 V 0.6185 h 13.7221 v 39.3519 z"
     fill="#f2f2f2"
     id="path394" />
  <path
     d="m 179.359,12.1861 7.568,-11.567 h 53.111 v 11.567 h -21.553 v 54.7812 h -14.43 V 12.1861 Z"
     fill="#f2f2f2"
     id="path396" />
  <path
     d="m 137.449,0.6191 h -15.073 l 22.386,33.2202 -23.125,33.2208 h 16.465 l 14.8,-23.1345 13.968,23.1345 h 15.953 z"
     fill="#f2f2f2"
     id="path398" />
  <path
     d="m 182.04,0.6191 h -16.095 l -12.049,18.6128 8.066,10.8798 z"
     fill="#f4901d"
     id="path400" />
</svg>
